<?xml version="1.0" standalone="no"?>
<!DOCTYPE svg PUBLIC "-//W3C//DTD SVG 20010904//EN"
 "http://www.w3.org/TR/2001/REC-SVG-20010904/DTD/svg10.dtd">
<svg version="1.0" xmlns="http://www.w3.org/2000/svg"
 width="1440.000000pt" height="1440.000000pt" viewBox="0 0 1440.000000 1440.000000"
 preserveAspectRatio="xMidYMid meet">
<metadata>
Created by potrace 1.11, written by Peter Selinger 2001-2013
</metadata>
<g transform="translate(0.000000,1440.000000) scale(0.100000,-0.100000)"
fill="#000000" stroke="none">
<path d="M10280 12342 c-77 -9 -108 -62 -161 -277 -38 -149 -68 -225 -90 -225
-5 0 -9 -4 -9 -9 0 -4 -29 -37 -65 -72 -36 -35 -65 -68 -66 -74 0 -5 -16 -30
-34 -55 -19 -25 -44 -62 -55 -82 -11 -20 -24 -39 -30 -43 -5 -3 -10 -13 -10
-21 0 -8 -19 -45 -43 -82 -23 -37 -56 -96 -72 -132 -17 -36 -33 -66 -37 -68
-5 -2 -8 -8 -8 -14 0 -11 -52 -124 -104 -228 -18 -36 -48 -105 -65 -155 -49
-136 -203 -454 -223 -463 -5 -2 -8 -13 -8 -25 -1 -23 -43 -154 -54 -164 -3 -4
-6 -17 -6 -30 0 -12 -4 -23 -9 -23 -4 0 -6 -11 -3 -25 2 -14 -3 -47 -12 -74
-9 -28 -16 -56 -16 -63 0 -7 -13 -19 -29 -26 -30 -13 -86 -8 -221 21 -30 6
-62 12 -70 12 -8 1 -21 4 -27 8 -7 5 -21 10 -30 12 -10 3 -38 9 -63 15 -47 12
-80 16 -195 26 -38 3 -74 9 -80 13 -39 31 -510 31 -580 1 -11 -5 -42 -11 -70
-15 -27 -3 -63 -7 -80 -9 -35 -5 -208 -22 -350 -35 -55 -5 -111 -12 -125 -14
-14 -3 -77 -10 -140 -16 -126 -13 -172 -20 -270 -44 -36 -9 -123 -22 -195 -28
-71 -6 -138 -16 -147 -20 -10 -5 -44 -11 -78 -12 -33 -2 -63 -7 -67 -10 -3 -4
-12 -2 -20 4 -16 14 -142 7 -151 -8 -4 -6 -23 -13 -42 -16 -19 -3 -53 -10 -75
-16 -22 -5 -71 -16 -110 -25 -95 -21 -206 -57 -226 -73 -9 -7 -18 -10 -22 -7
-8 8 -149 -61 -234 -115 -40 -26 -79 -60 -89 -78 -17 -30 -17 -32 0 -58 19
-30 56 -47 71 -34 5 5 17 9 27 9 10 0 18 4 18 8 0 4 17 14 38 21 20 7 58 26
83 42 25 16 50 29 55 29 6 0 28 8 50 19 21 10 62 26 89 36 45 15 72 20 155 29
14 2 35 6 48 10 13 4 38 10 55 12 111 14 282 58 307 79 8 7 38 15 65 19 28 4
82 12 120 17 39 6 91 10 117 10 26 -1 66 5 90 14 24 8 61 15 83 15 22 0 56 4
75 10 19 5 58 12 85 15 28 3 66 9 85 14 19 5 61 9 93 10 32 0 74 5 95 10 49
14 210 17 222 5 10 -10 -56 -86 -90 -104 -11 -6 -18 -15 -15 -19 3 -5 -1 -11
-8 -14 -35 -13 -106 -201 -122 -325 -8 -59 -21 -145 -30 -192 -20 -104 -28
-330 -15 -428 7 -48 22 -96 46 -145 67 -134 80 -145 212 -168 113 -19 276 7
409 67 17 8 38 14 46 14 9 0 18 4 22 9 3 5 31 19 63 31 31 11 78 32 104 46 26
14 51 26 55 26 5 1 36 14 70 30 35 15 66 28 70 28 5 0 24 8 43 18 19 10 60 27
90 37 30 11 62 24 70 31 19 15 149 74 164 74 18 1 106 69 113 88 3 9 15 29 25
44 20 30 24 88 6 106 -31 31 -93 6 -165 -66 -46 -46 -119 -93 -166 -108 -12
-3 -29 -12 -37 -18 -8 -7 -35 -18 -60 -25 -25 -7 -52 -19 -60 -26 -8 -7 -32
-18 -53 -25 -22 -7 -51 -18 -65 -26 -15 -8 -33 -14 -39 -14 -7 0 -13 -4 -13
-8 0 -5 -19 -15 -42 -22 -24 -8 -66 -24 -95 -37 -28 -13 -56 -23 -61 -23 -5 0
-36 -12 -68 -27 -33 -14 -63 -26 -68 -24 -4 1 -13 -3 -20 -8 -10 -8 -40 -15
-193 -41 -77 -13 -159 9 -199 53 -27 29 -32 44 -38 109 -4 41 -9 88 -11 104
-9 71 -7 262 4 282 6 11 11 37 11 58 0 20 6 60 14 88 8 28 22 85 31 126 9 42
36 116 63 168 38 78 53 97 84 113 20 10 41 25 45 32 14 24 159 117 182 117 11
0 21 5 21 11 0 15 154 6 243 -15 37 -8 90 -16 117 -17 28 -2 50 -6 50 -11 0
-4 3 -7 8 -6 10 4 96 -24 102 -33 8 -11 102 -59 116 -59 20 0 204 -91 204
-101 0 -5 6 -9 14 -9 24 0 139 -69 172 -103 47 -50 64 -108 39 -133 -13 -13
-15 -38 -10 -157 7 -194 38 -299 99 -336 46 -28 118 -31 204 -10 41 11 82 19
91 19 9 0 33 -21 54 -47 21 -26 49 -55 63 -63 13 -9 58 -54 100 -100 41 -46
86 -93 99 -104 28 -25 88 -104 98 -129 3 -9 32 -34 64 -55 32 -21 86 -65 120
-98 69 -66 117 -104 130 -104 4 0 20 -11 36 -24 15 -13 44 -26 65 -30 21 -3
75 -24 119 -46 45 -22 88 -40 97 -40 8 0 17 -4 20 -8 3 -5 36 -14 74 -22 76
-14 125 -7 225 30 87 33 210 157 272 274 26 49 64 113 85 141 21 29 42 69 45
89 4 20 10 36 14 36 12 0 59 131 66 180 12 96 13 135 4 151 -5 10 -11 34 -15
54 -3 21 -14 53 -25 71 -10 19 -19 42 -19 52 0 9 -11 47 -24 84 -13 37 -22 69
-20 71 6 6 -43 96 -79 145 -46 63 -115 132 -132 132 -8 0 -15 4 -15 8 0 5 -12
15 -27 23 -16 8 -48 26 -72 41 -25 16 -53 28 -62 28 -10 0 -24 7 -33 15 -8 9
-19 16 -23 17 -4 0 -19 5 -33 10 -30 11 -68 7 -175 -19 -44 -11 -114 -26 -155
-32 -41 -7 -86 -15 -100 -18 -14 -4 -34 -8 -45 -10 -10 -2 -23 -9 -27 -16 -6
-9 -8 -9 -8 2 0 10 -4 11 -12 3 -7 -6 -34 -12 -59 -15 -26 -3 -55 -9 -64 -15
-10 -5 -26 -7 -36 -5 -11 3 -19 0 -19 -6 0 -7 -6 -11 -12 -10 -20 3 -77 -21
-193 -84 -59 -32 -84 -51 -95 -75 -15 -32 -50 -44 -50 -17 0 8 -4 15 -8 15 -5
0 -19 20 -31 45 -33 66 -67 103 -104 111 -17 3 -43 11 -57 17 -28 11 -49 15
-103 21 -44 4 -40 0 -54 54 -9 38 -8 44 12 66 12 13 32 27 43 31 12 3 22 11
22 16 0 14 0 15 21 71 32 85 47 137 41 142 -3 4 -1 6 4 6 9 0 37 84 38 115 1
6 6 19 12 30 6 11 16 42 23 69 7 27 20 65 30 85 10 20 21 55 25 78 7 51 81
249 136 367 22 48 40 92 40 98 0 6 14 41 31 77 18 36 42 89 55 116 13 28 30
61 38 75 8 14 33 66 57 115 23 50 48 95 54 100 15 13 75 104 75 114 0 17 64
93 91 107 16 8 29 19 29 23 0 5 12 22 28 38 15 16 43 49 62 74 19 24 64 74
100 110 58 59 70 67 113 73 52 6 74 -1 116 -40 14 -13 31 -24 37 -24 7 0 27
-19 46 -41 18 -23 38 -46 43 -53 39 -42 96 -135 101 -165 9 -52 31 -92 69
-126 26 -24 39 -52 65 -135 18 -58 36 -109 40 -115 9 -13 35 -119 59 -244 11
-55 24 -109 30 -119 9 -16 41 -244 43 -302 1 -46 19 -181 29 -215 6 -22 15
-58 21 -80 5 -22 23 -67 38 -100 16 -33 31 -70 35 -82 9 -32 36 -38 56 -11
l18 23 11 -30 c6 -16 20 -74 31 -130 11 -55 26 -113 33 -130 7 -16 16 -74 20
-128 3 -56 12 -112 21 -131 9 -18 17 -48 19 -67 2 -19 9 -65 14 -104 6 -38 14
-97 17 -130 10 -103 24 -217 35 -285 5 -36 10 -99 10 -140 0 -87 22 -247 38
-277 7 -12 26 -23 46 -27 30 -6 37 -12 46 -44 5 -20 10 -44 10 -52 0 -8 7 -34
15 -58 9 -24 17 -51 19 -60 1 -9 6 -24 9 -32 3 -8 11 -42 17 -75 6 -33 18 -96
26 -140 28 -148 34 -190 39 -258 3 -37 12 -82 22 -100 10 -17 21 -68 25 -112
5 -44 11 -103 14 -132 8 -74 -8 -87 -127 -102 -133 -17 -325 -19 -340 -3 -23
22 -89 12 -89 -14 0 -7 -12 -16 -27 -20 -16 -3 -39 -9 -53 -14 -14 -5 -77 -14
-140 -20 -63 -6 -151 -17 -195 -25 -44 -8 -120 -21 -170 -30 -49 -8 -111 -19
-136 -24 -67 -14 -122 -21 -224 -26 -120 -7 -177 -13 -195 -19 -8 -3 -33 -8
-55 -10 -22 -3 -63 -12 -92 -19 -28 -8 -54 -13 -56 -10 -3 2 -54 -7 -114 -22
-141 -34 -253 -55 -333 -61 -36 -2 -87 -8 -115 -13 -27 -5 -95 -12 -150 -16
-55 -3 -118 -10 -140 -15 -22 -4 -83 -17 -135 -28 -52 -11 -126 -23 -165 -27
-38 -3 -74 -11 -79 -16 -6 -5 -26 -9 -45 -9 -40 0 -178 -37 -200 -54 -20 -15
-79 -37 -136 -48 -27 -6 -74 -19 -103 -29 -29 -11 -65 -19 -79 -19 -22 0 -84
-26 -143 -59 -8 -5 -35 -15 -60 -22 -62 -19 -76 -50 -60 -133 6 -33 19 -69 27
-79 24 -25 8 -33 -42 -19 -24 6 -97 17 -162 23 -114 11 -221 6 -388 -19 -27
-4 -77 -4 -110 1 -57 7 -64 6 -128 -28 -37 -19 -72 -35 -78 -35 -5 0 -37 -20
-71 -45 -60 -44 -98 -57 -98 -34 0 35 -121 250 -195 347 -45 60 -78 81 -110
68 -29 -11 -28 -37 1 -79 48 -69 66 -114 59 -150 -12 -61 -16 -66 -61 -83 -25
-9 -52 -26 -60 -38 -17 -25 -19 -87 -2 -104 22 -22 4 -409 -23 -497 -5 -17
-11 -58 -13 -92 -4 -65 -13 -108 -57 -270 -31 -113 -69 -176 -104 -171 -22 3
-23 11 -10 173 4 50 8 124 9 165 3 99 20 244 42 370 2 14 8 69 13 122 5 53 11
101 14 105 3 5 8 28 12 52 3 24 11 55 16 69 18 46 13 118 -11 159 l-21 39 24
69 c17 50 31 74 48 82 54 27 78 95 44 123 -18 15 -350 15 -488 0 -48 -6 -99
-7 -113 -4 -18 5 -32 0 -49 -16 -18 -17 -51 -27 -142 -42 -75 -13 -122 -25
-130 -35 -9 -12 -22 -14 -55 -8 -67 11 -397 15 -458 5 -30 -5 -125 -12 -210
-15 -85 -3 -189 -11 -230 -17 -76 -12 -103 -13 -335 -17 -92 -2 -140 -7 -163
-18 -18 -9 -36 -13 -39 -9 -3 3 -12 1 -20 -6 -8 -6 -40 -10 -74 -9 -64 2 -171
-11 -281 -35 -37 -9 -72 -12 -78 -9 -5 3 -16 3 -22 -2 -7 -4 -50 -8 -95 -9
-66 -1 -93 -6 -135 -27 -48 -23 -62 -25 -148 -21 -52 2 -138 5 -191 6 -105 3
-117 9 -142 70 -8 19 -18 68 -22 109 -3 41 -15 118 -26 171 -62 312 -76 448
-83 813 -2 127 -10 327 -16 445 -13 225 -16 628 -7 765 4 44 9 148 12 230 4
83 9 153 11 157 3 4 9 74 15 155 5 82 18 201 29 266 11 65 20 146 20 180 0 34
5 80 10 102 6 22 13 83 16 135 7 117 25 212 70 355 18 61 47 178 64 260 16 83
37 175 45 205 8 30 15 66 15 80 0 37 56 188 85 229 13 20 32 59 41 86 18 53
44 94 94 144 17 16 40 51 51 75 11 25 29 52 41 60 19 14 24 13 49 -4 15 -11
38 -20 51 -20 12 0 43 -13 67 -29 24 -16 49 -27 55 -25 6 2 42 -23 80 -56 38
-33 77 -60 87 -60 10 0 21 -4 24 -10 3 -5 23 -17 43 -27 20 -10 47 -28 58 -40
12 -13 25 -23 29 -23 5 0 20 -13 34 -28 14 -15 76 -60 136 -99 126 -83 145
-97 224 -173 193 -185 239 -230 266 -264 36 -46 97 -106 108 -106 4 0 7 -7 7
-15 0 -9 7 -18 15 -21 8 -4 15 -12 15 -20 0 -7 6 -17 14 -21 8 -4 27 -30 43
-58 17 -27 43 -70 60 -95 17 -25 47 -76 67 -113 20 -37 55 -86 76 -109 22 -22
40 -45 40 -50 0 -5 5 -6 10 -3 6 3 10 -2 10 -12 0 -10 9 -36 20 -58 11 -22 20
-43 20 -47 0 -8 53 -125 81 -179 10 -20 19 -47 19 -60 0 -13 11 -55 25 -93 26
-73 66 -120 117 -138 20 -7 31 -20 38 -47 5 -21 19 -46 30 -56 19 -17 22 -18
55 -2 46 22 65 53 68 117 3 42 -1 58 -18 79 -24 29 -63 101 -95 176 -12 28
-28 64 -35 80 -17 40 -57 123 -73 152 -7 12 -23 51 -36 86 -39 107 -158 263
-219 288 -32 13 -77 53 -90 79 -4 8 -16 29 -27 45 -11 17 -23 37 -27 45 -3 8
-9 17 -13 20 -4 3 -17 21 -31 41 -13 19 -60 69 -104 110 -44 40 -81 77 -83 81
-2 4 -17 24 -33 45 -17 21 -42 53 -56 71 -14 17 -30 32 -37 32 -6 0 -19 8 -27
18 -9 9 -44 42 -78 72 -34 30 -85 76 -112 103 -28 26 -55 47 -61 47 -6 0 -25
12 -43 28 -61 51 -75 62 -84 62 -5 0 -11 3 -13 8 -1 4 -48 43 -103 87 -108 86
-148 120 -177 148 -10 9 -22 17 -26 17 -5 0 -20 9 -33 20 -12 12 -38 30 -56
41 -18 11 -33 25 -33 30 0 5 -6 9 -13 9 -8 0 -32 13 -53 28 -48 35 -102 62
-123 62 -9 0 -34 10 -56 23 -36 20 -93 26 -172 18 -7 0 -24 -22 -39 -48 -49
-88 -78 -128 -119 -168 -24 -23 -57 -74 -79 -120 -21 -44 -46 -91 -57 -106
-10 -15 -19 -43 -19 -62 0 -19 -11 -88 -26 -153 -14 -66 -26 -129 -28 -142 -1
-12 -8 -28 -14 -34 -7 -7 -12 -25 -12 -40 0 -43 -39 -278 -52 -318 -7 -19 -13
-44 -14 -55 -3 -34 -23 -126 -31 -138 -4 -6 -10 -34 -14 -62 -5 -27 -10 -59
-13 -70 -19 -70 -24 -100 -20 -106 2 -4 -2 -52 -10 -106 -8 -54 -15 -120 -16
-148 -3 -77 -23 -233 -41 -315 -6 -24 -12 -85 -15 -135 -4 -88 -8 -166 -20
-330 -13 -196 -15 -270 -20 -590 -3 -187 -5 -347 -6 -355 -1 -8 5 -67 11 -130
7 -63 14 -245 16 -405 1 -159 5 -306 9 -325 3 -19 8 -66 11 -105 6 -82 21
-170 41 -241 8 -28 14 -71 14 -95 0 -47 21 -208 41 -328 13 -71 13 -74 -9 -91
-12 -10 -48 -24 -80 -30 -31 -7 -77 -18 -102 -26 -25 -7 -72 -21 -105 -30 -33
-9 -72 -23 -86 -30 -15 -7 -42 -15 -60 -17 -61 -7 -149 -30 -149 -39 0 -4 -11
-8 -24 -8 -14 0 -28 -4 -31 -10 -3 -5 -17 -10 -30 -10 -26 0 -157 -60 -184
-84 -9 -8 -40 -21 -70 -30 -67 -20 -78 -29 -91 -76 -7 -28 -17 -40 -35 -44
-27 -7 -30 -17 -14 -48 6 -11 8 -22 6 -25 -3 -3 -12 7 -19 22 -13 23 -16 25
-27 11 -8 -9 -21 -16 -30 -16 -10 0 -27 -10 -39 -23 -44 -46 -16 -137 42 -137
33 0 46 -20 31 -47 -6 -13 -15 -20 -18 -16 -4 3 -7 1 -7 -6 0 -23 29 -69 61
-95 23 -19 31 -34 29 -54 -7 -93 3 -109 90 -151 66 -32 131 -75 173 -114 39
-36 112 -87 125 -87 6 0 12 -3 14 -7 2 -5 30 -21 62 -37 32 -17 74 -40 93 -53
19 -13 40 -23 48 -23 7 0 20 -6 27 -14 8 -7 30 -17 49 -21 76 -17 126 -64 115
-111 -5 -18 2 -31 27 -56 18 -18 44 -38 58 -44 65 -31 303 -91 414 -104 62 -8
199 -54 225 -76 8 -6 44 -27 80 -45 71 -35 90 -51 113 -95 8 -16 27 -40 41
-53 28 -26 37 -27 306 -16 63 3 122 4 130 4 75 -4 230 3 254 10 56 18 228 19
314 1 64 -12 90 -23 123 -50 48 -41 92 -46 126 -14 13 12 23 26 23 33 0 6 10
9 22 8 12 -2 54 2 93 10 38 7 96 13 128 13 53 0 58 -2 67 -26 6 -14 8 -29 5
-33 -2 -4 3 -17 11 -29 18 -26 65 -30 84 -7 7 9 22 12 40 9 17 -4 37 0 54 11
23 15 26 24 26 76 0 48 4 61 18 66 9 4 19 9 22 12 23 27 201 53 214 32 14 -21
46 -11 66 21 19 32 48 46 172 89 32 11 70 24 85 31 16 6 33 12 38 12 6 1 44
24 85 51 41 28 96 61 122 74 25 13 66 41 90 62 23 22 57 46 73 55 66 33 85 46
132 92 104 99 124 113 176 119 l49 6 -7 35 c-6 32 -2 38 64 103 39 39 71 73
71 77 0 4 15 14 33 21 94 41 129 84 162 196 10 33 21 65 25 70 8 11 19 57 50
195 22 97 40 130 70 130 10 0 26 11 36 25 20 27 137 125 149 125 4 0 29 11 57
25 51 26 141 53 216 65 53 9 231 -6 248 -21 7 -6 31 -10 54 -11 22 0 48 -7 56
-15 32 -32 129 -25 155 11 8 10 49 -11 49 -25 0 -6 17 -36 38 -67 20 -31 47
-77 60 -102 12 -25 40 -67 62 -95 22 -27 48 -67 60 -87 24 -45 69 -88 91 -88
9 0 52 -34 95 -76 44 -41 97 -87 119 -101 22 -14 42 -29 45 -33 3 -4 23 -17
45 -28 22 -11 65 -42 95 -69 30 -27 77 -60 103 -72 27 -13 51 -30 54 -37 3 -8
11 -14 18 -14 7 0 18 -7 25 -15 7 -8 19 -15 27 -15 8 0 34 -13 58 -30 24 -16
47 -30 50 -30 4 0 40 -16 81 -35 40 -19 78 -35 84 -35 5 0 10 -4 10 -9 0 -5
13 -12 29 -16 16 -3 51 -20 77 -37 95 -60 115 -68 182 -73 36 -3 89 -12 116
-20 56 -15 153 -27 231 -27 33 0 59 -7 78 -20 15 -11 27 -17 27 -13 0 3 10 0
23 -7 12 -7 53 -13 90 -14 82 -1 95 -10 73 -52 -20 -39 -20 -61 -1 -99 23 -46
47 -50 117 -20 18 8 71 22 118 31 47 10 101 25 120 34 25 12 65 16 145 17 115
1 167 7 275 30 36 8 83 16 105 18 22 1 76 20 120 41 44 21 97 41 118 44 20 2
40 9 43 13 3 5 12 9 21 9 8 0 38 12 66 26 28 14 69 27 91 28 23 2 48 6 56 9
18 6 142 28 192 34 20 2 56 15 80 29 24 13 51 27 61 30 9 4 17 10 17 15 0 5 4
8 8 7 10 -4 116 45 120 55 2 4 9 7 15 7 15 0 150 82 160 97 4 7 13 13 19 13 5
0 40 29 77 64 36 35 86 81 110 103 112 99 361 355 361 372 0 10 8 29 19 42 22
29 54 89 46 89 -3 0 2 11 11 25 8 13 13 29 9 35 -12 20 -41 10 -60 -22 -52
-89 -278 -322 -348 -360 -11 -6 -48 -36 -82 -67 -62 -57 -85 -76 -163 -134
-23 -18 -68 -51 -98 -74 -51 -39 -74 -51 -74 -38 0 16 26 55 37 55 7 0 13 5
13 10 0 6 5 10 10 10 13 0 34 18 149 132 53 53 113 117 132 142 19 26 51 66
72 89 20 23 37 47 37 53 0 5 14 23 31 40 17 16 38 43 46 59 9 17 19 32 24 35
15 10 109 155 109 168 0 7 18 42 41 79 22 37 46 91 54 119 7 29 18 62 24 73
15 26 14 77 -1 101 -10 16 -9 23 11 44 18 19 24 42 31 107 5 46 15 105 23 130
14 43 14 48 -9 95 -20 41 -23 58 -18 109 8 75 8 78 -2 145 -4 30 -17 69 -29
85 -23 32 -55 97 -55 112 0 5 -10 19 -22 31 -24 22 -43 22 -133 4 -49 -10 -51
-10 -82 21 -55 55 -72 67 -95 67 -34 0 -49 -14 -57 -51 -6 -31 -11 -34 -68
-49 -40 -10 -100 -15 -179 -13 l-119 1 -12 64 c-7 35 -12 100 -13 145 0 79 -1
84 -32 115 -18 19 -39 41 -45 49 -14 17 -57 215 -50 227 3 4 -4 48 -14 97 -11
50 -24 119 -31 155 -6 36 -16 72 -23 80 -17 20 -24 45 -41 147 -8 48 -16 97
-18 108 -2 11 -9 47 -14 80 -6 33 -21 83 -33 110 -24 53 -25 57 -38 150 -9 60
-28 146 -38 175 -3 8 -7 33 -8 55 -1 22 -9 78 -19 125 -23 111 -43 230 -61
360 -8 58 -24 141 -36 185 -23 89 -26 99 -38 170 -5 28 -16 75 -24 105 -45
160 -60 208 -74 240 -9 19 -22 57 -30 85 -8 27 -15 55 -17 60 -4 15 -25 67
-36 90 -7 15 -48 144 -55 175 -1 3 -5 21 -9 40 -10 46 -35 130 -47 155 -5 11
-13 51 -19 89 -6 38 -18 82 -26 97 -8 16 -14 35 -13 42 1 6 -1 19 -4 27 -4 8
-8 33 -10 55 -2 22 -6 47 -9 55 -3 8 -13 42 -24 75 -10 33 -21 62 -24 65 -9 8
-28 72 -40 135 -7 33 -16 65 -21 70 -4 6 -11 31 -15 55 -8 53 -28 135 -42 170
-5 14 -48 65 -94 113 -66 69 -87 98 -97 135 -19 72 -40 113 -67 134 -13 11
-24 24 -24 30 0 6 -19 31 -42 54 -24 23 -52 54 -62 67 -26 33 -46 43 -76 39z
m-1660 -2518 c26 -3 74 -18 125 -39 17 -7 58 -19 90 -26 33 -7 62 -13 65 -14
3 0 21 -11 40 -23 19 -12 37 -22 40 -22 3 0 16 -16 29 -35 21 -32 23 -40 13
-73 -6 -20 -14 -46 -17 -58 -12 -47 -79 -48 -115 -1 -46 58 -153 157 -170 157
-6 0 -10 4 -10 8 0 5 -17 16 -37 26 -60 26 -122 62 -144 82 -12 11 -23 18 -25
17 -2 -2 -10 -2 -16 -2 -7 1 1 5 17 9 17 5 44 6 60 3 17 -3 41 -7 55 -9z
m1829 -348 c30 -9 84 -35 120 -59 36 -24 77 -51 91 -59 32 -20 80 -65 80 -75
0 -5 9 -14 20 -21 11 -7 20 -18 20 -25 0 -7 20 -44 45 -82 25 -39 45 -79 45
-90 0 -11 12 -47 26 -80 48 -114 43 -173 -24 -325 -13 -30 -29 -66 -35 -80
-16 -39 -76 -131 -144 -226 -35 -48 -63 -90 -63 -94 0 -4 -30 -27 -67 -50 -65
-41 -72 -43 -148 -44 -64 -1 -118 4 -152 13 -2 1 -5 0 -7 -1 -2 -2 -12 4 -22
13 -11 9 -32 19 -49 22 -16 3 -47 13 -67 21 -21 9 -39 15 -41 14 -2 -2 -20 9
-40 25 -19 15 -41 27 -47 27 -10 0 -42 23 -110 77 -49 40 -139 131 -150 152
-17 33 -132 151 -147 151 -7 0 -13 6 -13 13 0 8 -14 27 -30 43 -17 16 -40 46
-52 67 -12 20 -25 37 -30 37 -4 0 -8 6 -8 13 -1 6 -18 26 -39 42 -50 39 -49
63 3 143 38 61 41 70 43 145 1 43 3 81 5 82 2 2 26 -2 54 -8 52 -10 52 -10
130 38 44 27 81 52 84 57 5 7 51 20 220 63 30 8 68 14 83 15 16 0 35 7 43 15
9 8 27 16 42 17 59 3 68 5 82 11 24 10 142 26 170 22 14 -2 49 -11 79 -19z
m-1256 -127 c43 -23 76 -71 87 -126 11 -50 10 -58 -14 -106 -29 -60 -71 -91
-137 -102 -63 -12 -99 -13 -99 -3 0 4 -6 8 -14 8 -20 0 -42 39 -59 101 -8 30
-16 59 -17 64 -11 37 41 138 80 157 38 19 143 23 173 7z m3305 -2371 c8 -8 12
-47 12 -107 0 -156 -47 -306 -143 -454 -34 -53 -116 -141 -124 -134 -7 7 -3
108 7 167 11 65 25 169 34 246 4 40 14 116 21 159 8 56 35 96 77 115 49 22 98
26 116 8z m-329 -198 c1 -30 -6 -91 -15 -135 -16 -82 -30 -181 -59 -415 -19
-157 -19 -160 -40 -160 -18 0 -32 29 -18 39 11 7 25 38 28 66 2 11 7 45 13 75
7 38 7 59 0 68 -11 13 -4 147 12 232 5 25 12 81 15 125 4 44 14 100 22 123 8
24 12 46 9 50 -3 3 0 12 6 20 11 13 14 11 19 -9 4 -13 7 -49 8 -79z m-604 -22
c-6 -92 -28 -219 -55 -318 -6 -19 -19 -73 -31 -119 -30 -122 -50 -158 -83
-145 -14 5 -16 16 -11 63 3 31 10 67 15 81 4 14 11 39 14 55 3 17 16 83 30
147 17 84 22 127 16 148 -5 17 -5 30 0 30 5 0 14 19 20 43 27 109 31 117 62
117 l30 0 -7 -102z m-505 29 c0 -30 -7 -98 -15 -153 -8 -55 -17 -123 -20 -150
-12 -124 -51 -366 -72 -444 -28 -106 -31 -115 -33 -100 -1 8 -1 41 0 74 1 40
-1 56 -9 52 -6 -4 -11 -1 -11 8 0 20 17 30 23 14 3 -7 5 -4 5 7 1 48 16 141
24 152 5 7 14 54 19 105 5 51 11 107 14 123 2 17 5 101 6 187 l2 157 26 10
c40 15 41 14 41 -42z m940 13 c0 -16 -5 -41 -10 -56 -6 -15 -15 -78 -21 -138
-5 -61 -16 -136 -24 -166 -7 -31 -18 -94 -24 -140 -18 -136 -21 -150 -36 -150
-10 0 -14 21 -16 88 -3 111 1 401 6 427 2 11 4 52 4 92 l1 72 53 3 c65 4 67 3
67 -32z m-1166 20 c40 -15 34 -49 -15 -85 -23 -16 -45 -39 -49 -50 -6 -13 -9
6 -9 57 -1 65 2 77 17 81 28 8 30 7 56 -3z m382 -94 c-4 -33 -11 -104 -16
-156 -17 -178 -45 -328 -83 -457 -24 -80 -42 -97 -32 -30 3 23 8 60 10 82 2
22 9 72 16 110 7 39 11 98 10 132 -1 35 2 64 9 68 5 3 8 11 4 16 -3 5 2 31 10
57 9 26 18 63 20 82 3 19 5 35 6 35 0 0 3 22 5 49 3 27 9 54 15 61 6 7 10 17
9 21 -4 22 3 27 13 10 6 -12 8 -42 4 -80z m-1628 70 c23 -8 49 -15 59 -15 94
-2 123 -18 123 -67 0 -12 7 -38 16 -59 18 -43 35 -131 39 -195 1 -25 9 -101
18 -170 9 -69 21 -219 27 -334 6 -115 13 -212 16 -217 7 -12 18 -290 19 -469
0 -104 -4 -152 -13 -169 -12 -20 -11 -28 4 -57 10 -18 16 -35 14 -37 -3 -3
-30 -1 -60 4 -30 5 -77 11 -103 15 -41 4 -49 10 -58 32 -5 15 -14 35 -19 45
-6 10 -10 82 -9 170 2 218 3 299 1 322 -1 11 0 76 3 145 3 69 7 195 9 280 2
85 9 178 14 205 6 28 13 91 16 140 7 102 16 166 24 179 10 17 3 159 -10 186
-9 22 -16 25 -42 22 -54 -8 -70 -34 -81 -131 -8 -80 -16 -135 -31 -208 -10
-51 -11 -85 -5 -114 6 -28 6 -50 -3 -72 -10 -27 -13 -133 -4 -207 3 -33 -3
-60 -13 -60 -7 0 -18 -8 -25 -17 -12 -16 -13 -11 -9 38 7 82 8 226 2 236 -2 4
-1 35 4 68 25 177 17 418 -15 454 -25 28 -20 49 17 60 17 5 33 10 33 10 1 1
20 -5 42 -13z m1033 -18 c6 -77 -5 -193 -23 -236 -11 -26 -11 -26 -22 23 -6
28 -19 64 -28 80 -20 38 -32 97 -24 123 5 14 17 19 51 20 30 2 45 -2 46 -10z
m-1407 -7 c35 -14 36 -41 4 -74 -31 -32 -30 -27 -33 -117 -5 -135 -16 -359
-25 -480 -5 -69 -12 -206 -15 -305 -7 -201 -11 -235 -29 -235 -15 0 -21 275
-18 730 1 166 -3 250 -12 285 -7 28 -12 59 -10 70 4 25 -16 95 -28 95 -4 0 -8
4 -8 9 0 25 124 40 174 22z m860 -22 c-17 -18 -18 -42 -16 -209 1 -47 0 -101
-2 -120 -1 -19 -6 -105 -10 -190 -8 -151 -19 -230 -34 -230 -13 0 -34 86 -44
182 -20 191 -26 275 -27 354 -1 44 -6 85 -12 91 -11 11 -15 121 -5 131 8 7
128 18 149 14 17 -4 17 -6 1 -23z m-1196 -196 c-1 -76 -1 -160 1 -188 5 -81
-10 -178 -29 -197 -10 -9 -30 -44 -45 -77 -16 -34 -31 -61 -35 -61 -4 0 -7 -7
-7 -15 0 -15 -29 -122 -45 -167 -5 -15 -18 -34 -29 -44 -18 -16 -19 -16 -20
17 -3 47 -1 84 6 229 4 69 7 161 9 205 3 122 25 335 41 391 5 15 81 42 122 43
l32 1 -1 -137z m-322 38 c-11 -92 -13 -103 -34 -171 -11 -36 -24 -81 -27 -100
-4 -19 -11 -39 -15 -45 -5 -5 -14 -39 -21 -75 -14 -74 -32 -101 -51 -82 -10
10 -12 72 -10 260 2 135 5 248 8 251 8 8 138 28 148 23 4 -2 5 -30 2 -61z
m1740 16 c11 -21 27 -64 34 -95 7 -31 23 -80 35 -107 12 -28 25 -68 29 -90 3
-22 15 -69 25 -105 10 -36 23 -87 29 -115 5 -27 19 -88 31 -134 20 -79 21
-121 1 -121 -12 0 -22 30 -26 84 -2 27 -10 57 -19 66 -9 10 -18 39 -21 66 -4
27 -15 63 -25 80 -10 17 -19 41 -19 52 0 11 -5 24 -10 27 -6 4 -8 11 -5 16 4
5 2 9 -3 9 -5 0 -17 30 -26 67 -9 37 -25 84 -35 104 -11 20 -17 40 -13 44 3 3
1 9 -5 13 -11 7 -33 112 -33 160 0 36 31 24 56 -21z m-938 -19 c19 -31 20 -49
16 -348 -1 -173 -6 -459 -10 -635 -11 -463 -12 -424 11 -441 39 -29 64 -28 96
2 16 15 29 34 29 42 0 7 6 12 12 10 17 -6 36 -72 37 -126 l1 -43 -72 7 c-49 5
-85 14 -108 29 -19 13 -52 28 -72 34 -51 17 -62 33 -39 58 16 17 21 43 27 129
3 60 8 125 9 144 3 39 -14 100 -28 100 -10 0 -6 104 13 375 5 77 7 167 4 200
-4 39 0 88 10 138 10 48 13 84 8 95 -8 15 -5 59 13 192 12 82 15 84 43 38z
m2332 -2 c0 -3 -4 -8 -10 -11 -5 -3 -10 -1 -10 4 0 6 5 11 10 11 6 0 10 -2 10
-4z m-6320 -71 c19 -23 8 -25 -14 -4 -11 11 -15 19 -9 19 6 0 16 -7 23 -15z
m5480 -99 c0 -49 -4 -88 -11 -91 -6 -4 -8 -12 -6 -19 3 -7 -5 -84 -18 -172
-15 -108 -23 -214 -24 -325 -1 -90 -4 -180 -6 -199 -11 -92 -17 -120 -26 -120
-8 0 -13 15 -10 33 0 4 -3 7 -7 7 -4 0 -9 10 -10 23 -1 12 -10 49 -20 82 -10
33 -20 86 -21 117 -1 31 -6 70 -11 87 -5 17 -5 33 0 36 4 3 11 32 15 65 4 33
11 63 16 66 5 3 7 9 4 14 -3 5 2 30 11 55 8 26 13 54 9 62 -3 9 1 39 9 67 8
28 17 75 21 103 4 29 11 55 16 59 5 3 9 12 9 20 0 8 7 31 17 52 15 34 18 42
22 57 0 3 6 5 11 5 6 0 10 -35 10 -84z m838 4 c13 -73 10 -256 -6 -286 -32
-61 -34 -71 -23 -110 21 -75 6 -324 -19 -324 -4 0 -13 -14 -20 -31 -8 -17 -25
-39 -40 -48 -24 -14 -82 -73 -246 -247 -61 -64 -142 -100 -199 -90 -36 7 -36
7 -34 57 3 56 18 74 54 65 47 -12 105 34 105 84 0 32 4 37 36 49 20 7 45 21
56 30 26 21 65 109 83 189 9 36 20 70 24 76 5 6 17 40 26 74 9 35 20 71 25 80
21 39 50 116 50 133 0 23 19 107 31 134 5 11 13 43 19 70 6 28 18 69 27 93 9
23 13 45 10 49 -4 3 -2 12 5 20 16 20 23 7 36 -67z m-3483 8 c-9 -82 -14 -98
-29 -98 -17 0 -26 31 -26 91 0 52 4 59 37 59 23 0 23 -2 18 -52z m-170 -85 c9
-43 20 -96 25 -118 10 -51 -1 -177 -17 -182 -12 -4 -31 23 -36 54 -4 19 -13
42 -53 128 -38 85 -58 156 -48 173 13 20 75 40 95 31 11 -5 23 -37 34 -86z
m-2417 65 c14 -14 16 -54 3 -62 -4 -3 -11 -24 -15 -46 -3 -22 -17 -65 -31 -96
-14 -31 -25 -61 -25 -66 0 -6 -6 -24 -14 -41 -8 -18 -26 -63 -41 -101 -31 -82
-166 -356 -174 -356 -12 0 -29 50 -20 56 5 3 7 9 4 13 -2 5 0 23 6 42 6 19 14
90 19 159 5 78 14 136 24 155 8 17 18 62 22 100 4 39 10 75 14 80 4 6 11 36
14 68 4 31 12 57 17 57 5 0 9 7 9 15 0 15 17 21 75 28 64 8 101 7 113 -5z
m258 -57 c-3 -9 -8 -60 -10 -113 -3 -54 -8 -115 -12 -135 -10 -58 -85 -315
-100 -345 -8 -15 -14 -36 -14 -48 0 -32 -43 -101 -60 -97 -20 3 -22 79 -3 182
8 44 16 87 18 95 1 8 5 22 8 30 8 20 26 138 37 233 4 42 17 94 27 115 11 20
26 55 33 77 18 56 40 71 63 43 9 -11 15 -28 13 -37z m-767 -21 c10 0 12 -10 7
-44 -4 -24 -8 -89 -9 -145 -1 -56 -4 -101 -7 -101 -6 0 -23 -38 -45 -98 -8
-24 -24 -63 -36 -85 -12 -23 -27 -54 -35 -70 -7 -15 -32 -61 -54 -102 -23 -41
-37 -75 -33 -75 4 0 1 -6 -7 -13 -8 -7 -16 -19 -17 -27 -5 -44 -35 -114 -54
-125 -5 -4 -9 -14 -9 -23 0 -9 -7 -30 -16 -47 -9 -16 -28 -52 -41 -79 -47 -91
-48 -32 -3 269 11 77 27 169 35 205 8 36 20 101 26 145 6 44 18 94 25 110 7
17 15 73 17 125 2 52 10 107 17 121 13 28 62 48 116 50 16 0 38 4 49 9 11 5
29 7 40 5 11 -3 26 -5 34 -5z m-484 -78 c13 -7 16 -14 10 -19 -6 -5 -17 -28
-25 -53 -7 -25 -21 -61 -31 -80 -10 -19 -25 -60 -33 -90 -8 -31 -27 -78 -42
-105 -46 -84 -74 -144 -74 -157 0 -7 -9 -26 -20 -43 -11 -16 -20 -38 -20 -47
0 -24 -55 -130 -63 -121 -4 3 -7 49 -7 102 1 87 5 119 24 201 23 94 29 162 16
185 -17 32 -7 145 17 185 10 17 26 30 38 31 36 2 69 7 110 16 48 12 73 11 100
-5z m1905 -74 c6 -13 18 -36 28 -53 10 -16 24 -66 32 -110 7 -44 16 -84 20
-90 4 -5 5 -37 4 -70 -3 -57 -30 -129 -61 -163 -7 -7 -13 -20 -13 -29 0 -8
-14 -44 -30 -80 -50 -107 -143 -186 -124 -105 12 52 30 282 27 336 -2 30 2 67
9 83 6 15 14 53 18 83 13 95 31 182 41 202 13 25 37 23 49 -4z m-2350 -30 c0
-7 -6 -49 -14 -93 -13 -74 -25 -108 -76 -221 -11 -23 -22 -55 -26 -70 -4 -16
-15 -45 -25 -64 -42 -80 -83 -176 -81 -187 2 -7 -1 -13 -6 -13 -5 0 -9 -6 -9
-12 0 -7 -11 -35 -24 -63 l-24 -50 -3 65 c-2 36 1 88 7 115 6 28 13 75 16 107
4 31 12 58 19 61 7 3 18 42 25 88 12 82 44 223 61 265 5 12 20 24 35 28 41 10
105 40 105 48 0 5 5 8 10 8 6 0 10 -6 10 -12z m4104 -194 c1 -78 5 -145 9
-150 3 -6 2 -16 -2 -23 -6 -10 -15 -6 -35 15 -23 26 -25 35 -22 89 4 58 11
124 22 194 11 71 24 11 28 -125z m3631 69 c11 -11 27 -22 35 -25 11 -4 7 -12
-16 -34 -97 -91 -123 -114 -128 -114 -15 0 -4 55 19 98 16 30 25 63 25 92 0
25 6 52 13 59 10 10 14 6 22 -21 6 -19 19 -43 30 -55z m-1755 37 c17 -40 18
-271 2 -395 -34 -272 -45 -509 -28 -637 l8 -68 -56 0 c-57 0 -96 12 -96 30 0
6 5 10 11 10 12 0 25 14 57 59 27 39 37 150 29 331 -2 47 4 150 14 229 10 80
18 186 18 238 0 51 2 97 5 102 3 5 6 36 7 70 2 67 10 76 29 31z m-6356 -64
c-12 -39 -24 -41 -24 -3 0 29 3 35 15 31 11 -4 13 -13 9 -28z m2179 -93 c-2
-71 -6 -137 -9 -148 -3 -11 -9 -65 -14 -120 -12 -130 -23 -189 -50 -250 -12
-27 -23 -72 -25 -100 -2 -27 -8 -70 -14 -95 -5 -25 -10 -66 -11 -91 0 -55 -39
-109 -77 -109 -27 0 -28 12 -12 91 6 30 12 63 13 75 1 11 5 24 8 30 5 9 20 68
19 79 0 2 6 26 14 52 8 27 17 68 20 93 7 49 41 207 56 254 5 16 9 46 9 66 0
21 11 75 24 121 13 46 28 102 31 124 7 39 13 55 19 55 2 0 2 -57 -1 -127z
m5100 94 c8 -21 -4 -65 -19 -71 -9 -4 -14 2 -14 17 0 52 21 85 33 54z m-7505
-45 c3 -40 -14 -102 -45 -162 -7 -14 -13 -32 -13 -40 0 -9 -6 -24 -14 -35 -7
-11 -16 -32 -20 -47 -3 -16 -11 -28 -16 -28 -6 0 -10 -11 -10 -24 0 -13 -6
-29 -14 -35 -8 -7 -18 -26 -21 -42 -12 -52 -25 -31 -18 29 4 38 12 61 24 70
14 9 17 20 12 43 -3 17 -1 40 5 52 19 42 54 152 62 199 11 61 17 70 43 66 18
-2 23 -11 25 -46z m4962 -173 c0 -161 -2 -191 -15 -196 -9 -3 -25 3 -36 13
-19 17 -21 27 -16 104 10 152 13 175 30 209 9 19 17 43 17 53 0 11 5 16 10 13
6 -4 10 -80 10 -196z m-4756 138 c0 -39 -18 -38 -22 2 -2 23 0 32 9 29 7 -2
13 -16 13 -31z m-488 -33 c-10 -23 -11 -23 -14 -3 -5 30 7 57 17 40 5 -7 3
-24 -3 -37z m-225 -24 c3 -14 2 -29 -2 -35 -3 -5 -12 -35 -19 -65 -25 -109
-37 -128 -87 -136 -25 -4 -30 0 -48 43 -13 33 -19 72 -20 123 l0 75 41 -3 c25
-2 45 2 51 10 7 7 26 13 45 13 27 0 34 -5 39 -25z m6463 -5 c-4 -8 -11 -15
-16 -15 -6 0 -5 6 2 15 7 8 14 15 16 15 2 0 1 -7 -2 -15z m1505 -92 c-21 -25
-28 14 -10 55 l16 34 3 -36 c2 -21 -2 -44 -9 -53z m901 81 c0 -8 -83 -84 -92
-84 -22 0 2 35 47 67 30 22 45 28 45 17z m-7311 -66 c1 -5 -6 -8 -15 -8 -13 0
-14 -3 -5 -13 6 -8 7 -17 3 -21 -4 -4 -7 -58 -8 -119 -1 -133 -11 -221 -29
-262 -7 -16 -17 -48 -20 -70 -4 -22 -12 -46 -18 -52 -6 -9 -6 -13 2 -13 8 0 7
-9 -3 -28 -8 -16 -22 -71 -31 -123 -9 -52 -21 -98 -26 -104 -5 -5 -9 -21 -9
-36 0 -15 -5 -40 -11 -56 -7 -15 -13 -35 -15 -43 -11 -55 -29 -116 -36 -121
-4 -3 -11 -33 -14 -67 -9 -82 -29 -98 -134 -102 -183 -9 -279 7 -405 65 -16 7
-43 17 -59 21 -16 4 -36 19 -45 35 -12 21 -26 30 -56 34 -22 3 -49 10 -60 15
-11 4 -42 17 -70 27 -60 23 -70 51 -32 92 13 14 32 49 42 76 9 28 20 57 23 65
3 8 6 21 8 28 1 7 11 30 22 51 17 32 60 158 68 197 2 10 34 64 38 64 5 0 -2
-108 -7 -117 -4 -6 -6 -22 -6 -34 1 -13 -2 -62 -6 -109 -5 -47 -9 -94 -10
-106 -1 -11 -4 -25 -8 -31 -14 -23 0 -140 19 -167 31 -42 52 -43 89 -2 18 20
39 36 47 36 10 0 25 36 47 108 18 59 43 141 57 182 14 41 30 99 35 129 15 81
79 235 103 244 12 5 5 -208 -8 -251 -4 -13 -3 -28 2 -35 7 -8 6 -36 -4 -87 -8
-42 -14 -122 -13 -180 1 -58 -1 -133 -5 -168 -12 -95 10 -131 77 -132 10 0 42
24 70 52 29 29 58 51 66 50 9 -2 12 2 7 13 -23 61 -17 115 46 405 6 30 15 60
20 66 4 6 6 13 3 16 -6 5 16 82 48 168 21 57 29 77 71 172 15 31 26 60 26 64
0 4 8 26 19 48 10 23 26 59 36 81 10 22 27 52 39 66 18 22 22 23 28 10 4 -9 7
-19 7 -23z m5747 -44 c-5 -13 -9 -14 -21 -4 -13 11 -13 14 2 26 20 14 29 3 19
-22z m-1561 -36 c-4 -24 -8 -79 -10 -123 -3 -88 -14 -185 -22 -185 -11 0 -72
52 -77 67 -4 9 0 23 9 33 14 16 55 156 55 189 0 21 28 61 42 61 7 0 8 -14 3
-42z m2215 -44 c-9 -41 -47 -238 -60 -312 -4 -24 -13 -48 -20 -55 -10 -10 -11
2 -7 61 3 41 10 79 15 85 5 7 10 42 10 79 0 43 8 88 21 124 12 30 19 59 16 64
-3 5 1 10 7 13 21 7 28 -16 18 -59z m-629 -29 c33 -122 38 -150 41 -213 3 -71
-5 -84 -33 -56 -20 21 -34 106 -44 282 -5 83 12 77 36 -13z m-7750 8 c2 -53 1
-55 -28 -120 -15 -32 -26 -61 -25 -65 1 -5 -2 -8 -8 -8 -5 0 -10 5 -10 12 0
16 20 124 32 176 13 54 38 57 39 5z m-468 -75 c12 -29 13 -51 4 -145 -3 -30
-24 -29 -70 2 -29 20 -37 32 -37 57 0 46 49 116 82 118 5 0 14 -15 21 -32z
m2825 -115 c3 -21 -23 -39 -33 -22 -9 14 5 51 18 46 7 -2 13 -13 15 -24z m-34
-84 c-5 -24 -8 -50 -7 -56 0 -7 -3 -13 -7 -13 -5 0 -7 -20 -5 -45 1 -25 -1
-45 -6 -45 -5 0 -7 -11 -3 -25 3 -14 2 -25 -4 -25 -8 0 -15 -23 -38 -127 -5
-23 -12 -62 -18 -98 -1 -11 -8 -38 -14 -60 -6 -22 -19 -76 -28 -120 -9 -44
-20 -100 -25 -125 -6 -25 -10 -53 -10 -62 0 -11 -11 -20 -27 -24 -15 -4 -60
-15 -101 -25 -122 -31 -181 -25 -181 19 0 40 23 142 32 142 5 0 25 -7 44 -15
49 -20 82 -12 116 27 15 18 28 29 28 23 1 -5 8 3 16 18 9 16 13 31 10 34 -3 4
-2 11 2 17 17 22 103 317 131 447 4 19 15 50 24 67 9 18 23 58 32 89 15 50 18
54 32 41 12 -12 13 -25 7 -59z m5850 -16 c-4 -15 -9 -32 -11 -36 -7 -13 -34
15 -29 29 3 7 1 16 -4 19 -17 10 -11 43 8 47 25 5 44 -26 36 -59z m-1829 -1
c11 -58 32 -79 86 -84 26 -2 35 -8 37 -24 4 -28 -23 -38 -57 -21 -124 64 -151
84 -151 110 0 22 49 78 65 73 5 -1 14 -26 20 -54z m1294 -115 c18 -95 40 -137
71 -137 5 0 10 -8 10 -18 0 -25 6 -30 34 -25 15 3 29 16 37 34 11 28 14 29 55
23 41 -6 46 -4 77 28 29 31 36 34 74 30 50 -5 66 -20 61 -59 -2 -21 -9 -29
-28 -31 -14 -2 -29 -8 -34 -13 -6 -5 -18 -9 -27 -9 -9 0 -22 -6 -28 -13 -6 -8
-29 -19 -51 -26 -22 -6 -40 -16 -40 -20 0 -7 -34 -19 -75 -26 -5 -1 -23 -7
-38 -13 -35 -15 -97 -15 -132 -2 l-26 10 5 132 c4 136 11 201 26 248 3 10 10
-17 29 -113z m-7099 -25 c0 -20 -5 -55 -11 -77 -11 -42 -13 -67 -11 -127 4
-77 91 -120 128 -63 9 14 25 25 35 25 11 0 19 3 19 8 1 4 12 21 25 37 l25 30
-5 -65 c-3 -36 -6 -89 -6 -117 -1 -60 3 -59 -95 -38 -148 31 -278 85 -279 116
-1 8 12 29 27 47 15 18 28 38 28 44 0 10 32 83 82 185 24 49 38 47 38 -5z
m7760 28 c0 -13 -5 -18 -15 -14 -12 5 -13 10 -4 20 15 19 19 18 19 -6z m-8263
-119 c-5 -2 -15 3 -22 10 -11 12 -10 21 3 54 l17 40 5 -50 c3 -27 1 -52 -3
-54z m193 -61 c0 -25 -27 -37 -43 -21 -9 9 -8 14 3 21 8 5 18 6 22 4 4 -3 8 0
8 5 0 6 2 11 5 11 3 0 5 -9 5 -20z m2216 -21 c1 -16 -2 -31 -6 -34 -4 -3 -4
-23 1 -46 5 -22 7 -45 3 -50 -11 -19 6 -76 31 -103 23 -24 29 -26 75 -20 l50
7 0 -38 c0 -29 -7 -44 -31 -66 -17 -16 -37 -29 -44 -29 -6 0 -32 -11 -56 -23
-59 -32 -94 -40 -107 -24 -9 11 -17 45 -12 57 3 8 7 31 18 90 24 128 42 204
50 209 4 3 8 24 9 46 2 67 3 69 10 61 4 -4 8 -21 9 -37z m402 -11 c20 -35 47
-43 97 -29 21 6 42 8 47 5 11 -7 1 -58 -20 -99 -18 -36 -91 -105 -111 -105 -8
0 -27 -11 -41 -25 -14 -13 -40 -28 -58 -31 -32 -6 -32 -6 -32 34 0 61 38 232
51 232 4 0 9 11 13 23 8 32 33 30 54 -5z m5301 -17 c18 -11 5 -31 -20 -31 -21
0 -22 1 -13 24 7 18 13 19 33 7z m-8219 -20 c0 -5 16 -12 35 -15 19 -4 35 -11
35 -16 0 -6 11 -10 25 -10 16 0 25 -6 25 -16 0 -8 4 -13 9 -9 5 3 12 1 16 -5
11 -18 -28 -11 -92 16 -37 16 -63 34 -66 45 -3 11 -1 19 4 19 5 0 9 -4 9 -9z
m8150 -15 c0 -2 -8 -10 -17 -17 -16 -13 -17 -12 -4 4 13 16 21 21 21 13z"/>
<path d="M9933 9139 c-7 -6 -81 -38 -163 -71 -103 -42 -140 -77 -102 -97 10
-5 19 -9 22 -8 3 0 21 -3 42 -7 20 -3 56 -2 80 4 72 17 185 24 192 11 4 -6 15
-11 24 -11 9 0 41 -18 70 -40 29 -22 57 -40 62 -40 6 0 10 -5 10 -12 0 -6 3
-9 6 -5 4 3 24 -3 45 -13 51 -27 85 -25 114 5 39 39 32 65 -32 124 -32 29 -70
60 -85 69 -16 9 -28 22 -28 29 0 7 -4 13 -10 13 -21 0 -26 1 -48 16 -51 33
-176 54 -199 33z"/>
<path d="M8400 9379 c-14 -6 -48 -8 -77 -4 -31 3 -54 2 -58 -5 -3 -5 -16 -10
-29 -10 -12 0 -26 -3 -30 -7 -3 -4 -12 -8 -19 -9 -7 -1 -38 -13 -68 -27 -72
-33 -196 -77 -217 -77 -36 -1 -64 -37 -65 -86 -2 -39 2 -49 24 -66 28 -21 82
-36 114 -30 11 1 34 24 50 49 26 40 40 50 110 77 66 27 145 47 245 63 8 1 33
7 55 13 22 6 79 10 127 10 85 0 88 0 94 25 8 31 0 54 -23 62 -10 4 -21 11 -25
17 -9 13 -176 17 -208 5z"/>
<path d="M7210 5179 c-118 -25 -170 -43 -170 -58 0 -9 -13 -22 -29 -29 -49
-22 -118 -79 -142 -119 -18 -28 -23 -50 -21 -89 1 -28 -4 -66 -12 -85 -8 -19
-13 -50 -11 -69 2 -37 33 -110 46 -110 4 0 18 -21 31 -46 21 -43 102 -124 123
-124 4 0 34 -16 68 -36 73 -43 205 -75 264 -64 22 3 47 6 56 4 10 -1 15 1 12
6 -2 4 21 10 53 14 31 4 73 11 92 17 45 14 181 79 197 95 7 7 23 21 36 31 13
10 37 39 55 65 18 25 38 52 45 60 7 7 30 38 50 69 32 49 37 63 37 115 -1 106
-33 189 -95 243 -99 87 -267 120 -487 96 -50 -5 -82 -4 -90 2 -19 15 -69 21
-108 12z"/>
<path d="M1238 4635 c-2 -2 -74 -6 -161 -9 -87 -3 -162 -8 -168 -11 -15 -10
-10 -41 10 -59 15 -14 43 -17 177 -17 259 -1 476 -10 504 -21 8 -4 35 -9 60
-12 25 -3 68 -10 95 -16 28 -5 73 -12 100 -16 28 -3 55 -10 62 -16 7 -5 16 -7
21 -4 6 3 29 -1 52 -9 48 -17 204 -38 263 -36 30 2 43 -4 59 -24 11 -14 23
-23 28 -20 5 3 10 2 12 -2 5 -13 58 -40 131 -67 37 -14 78 -32 90 -41 12 -8
32 -15 44 -15 13 0 23 -4 23 -9 0 -9 29 -19 80 -27 52 -9 158 -47 236 -86 100
-49 148 -57 198 -33 45 22 60 54 51 114 -10 65 -54 106 -125 116 -30 4 -79 16
-108 27 -29 11 -56 17 -59 14 -4 -3 -12 -1 -18 4 -7 6 -40 13 -74 16 -34 3
-92 17 -129 31 -37 13 -75 27 -85 29 -10 2 -28 6 -40 10 -12 4 -29 8 -37 8 -8
1 -31 7 -50 13 -19 7 -69 17 -110 22 -194 28 -333 55 -376 76 -39 18 -261 57
-284 50 -10 -3 -30 -1 -46 5 -25 10 -417 23 -426 15z"/>
<path d="M2410 3987 c-3 -3 -50 -15 -105 -27 -55 -12 -109 -26 -120 -31 -11
-4 -36 -10 -55 -13 -50 -8 -120 -29 -155 -48 -16 -8 -48 -19 -70 -23 -21 -3
-57 -17 -80 -29 -22 -12 -60 -28 -85 -36 -25 -7 -49 -17 -54 -22 -6 -4 -24 -8
-40 -8 -20 -1 -37 -8 -47 -23 -15 -20 -15 -27 -4 -55 9 -21 23 -34 42 -38 44
-11 280 25 340 52 28 13 61 24 72 24 11 0 22 4 25 9 3 5 18 12 33 16 16 3 43
16 61 27 18 11 54 22 80 23 26 2 63 8 82 14 19 6 97 14 172 17 135 6 210 -2
369 -37 64 -14 131 -21 215 -23 60 -2 76 2 99 20 24 19 26 23 13 44 -15 26
-106 70 -146 70 -15 0 -35 7 -45 14 -23 18 -129 40 -282 60 -142 19 -308 31
-315 23z"/>
<path d="M3080 3490 c-47 -4 -112 -17 -145 -28 -112 -38 -312 -110 -331 -120
-34 -17 -108 -50 -139 -62 -68 -26 -261 -147 -351 -219 -6 -5 -31 -19 -55 -31
-24 -13 -63 -36 -86 -51 -23 -16 -44 -29 -48 -29 -5 0 -123 -79 -221 -149 -23
-16 -51 -32 -62 -35 -63 -20 -102 -97 -67 -132 13 -13 22 -12 77 15 35 16 100
54 145 83 186 120 240 153 281 169 23 10 64 31 90 47 26 17 79 40 117 52 39
12 89 31 113 41 23 10 53 19 65 19 13 0 28 5 34 11 13 13 103 52 173 75 25 9
54 19 65 24 66 28 205 79 235 85 19 4 41 11 50 15 8 4 35 16 60 25 149 58 180
82 180 140 0 19 -10 30 -40 45 -21 11 -43 19 -47 18 -4 0 -46 -4 -93 -8z"/>
</g>
</svg>
